<?xml version="1.0" standalone="no"?>
<!DOCTYPE svg PUBLIC "-//W3C//DTD SVG 20010904//EN"
 "http://www.w3.org/TR/2001/REC-SVG-20010904/DTD/svg10.dtd">
<svg version="1.0" xmlns="http://www.w3.org/2000/svg"
 width="5001.000000pt" height="3334.000000pt" viewBox="0 0 5001.000000 3334.000000"
 preserveAspectRatio="xMidYMid meet">

<g transform="translate(0.000000,3334.000000) scale(0.100000,-0.100000)"
fill="#000000" stroke="none">
<path d="M39633 33213 c19 -385 122 -872 269 -1263 287 -765 822 -1692 1607
-2780 637 -885 1340 -1771 2471 -3115 453 -539 682 -824 1002 -1250 1012
-1349 1747 -2637 2213 -3880 786 -2098 814 -4076 85 -6035 -345 -926 -863
-1850 -1562 -2785 -273 -365 -450 -568 -802 -920 -1044 -1041 -2659 -2224
-4719 -3453 -420 -252 -1258 -732 -1282 -736 -5 -1 -16 -5 -22 -9 -8 -5 -13
-4 -13 2 0 6 4 11 8 11 4 0 8 21 8 48 -1 147 5 211 20 226 8 9 13 16 9 16 -13
0 -51 -24 -138 -87 -572 -414 -1431 -961 -2191 -1397 -343 -197 -324 -189
-556 -240 -1515 -334 -3315 -635 -4935 -826 -1436 -168 -2756 -266 -4335 -322
-506 -18 -2297 -17 -3130 2 -471 10 -1152 15 -2250 15 -1493 0 -1905 -5 -2860
-35 -3083 -97 -5755 -352 -8005 -766 -3590 -659 -6145 -1709 -7800 -3205 -129
-117 -375 -355 -419 -407 l-19 -22 23861 0 23862 0 0 16670 0 16670 -5192 0
-5191 0 6 -127z m-753 -26009 c0 -8 -19 -13 -24 -6 -3 5 1 9 9 9 8 0 15 -2 15
-3z"/>
</g>
</svg>
